<svg width="774" height="54" viewBox="0 0 774 54" fill="none" xmlns="http://www.w3.org/2000/svg">
<path d="M7.7215 30.1472V26.2112H12.2655C13.1828 26.2112 13.9508 26.0299 14.5695 25.6672C15.2095 25.3045 15.6895 24.8032 16.0095 24.1632C16.3508 23.5232 16.5215 22.7872 16.5215 21.9552C16.5215 21.1232 16.3508 20.3872 16.0095 19.7472C15.6895 19.1072 15.2095 18.6165 14.5695 18.2752C13.9508 17.9125 13.1828 17.7312 12.2655 17.7312H7.7215V13.7952H11.8815C13.8442 13.7952 15.5082 14.1152 16.8735 14.7552C18.2602 15.3952 19.3162 16.3125 20.0415 17.5072C20.7668 18.6805 21.1295 20.0779 21.1295 21.6992V22.2112C21.1295 23.8325 20.7668 25.2405 20.0415 26.4352C19.3162 27.6085 18.2602 28.5259 16.8735 29.1872C15.5082 29.8272 13.8442 30.1472 11.8815 30.1472H7.7215ZM3.8175 37.3152V13.7952H8.3615V37.3152H3.8175ZM38.356 37.9232C36.244 37.9232 34.4093 37.5499 32.852 36.8032C31.316 36.0565 30.036 35.0859 29.012 33.8912C28.0093 32.6752 27.252 31.3739 26.74 29.9872C26.2493 28.5792 26.004 27.2245 26.004 25.9232V25.2192C26.004 23.7899 26.26 22.3712 26.772 20.9632C27.284 19.5339 28.052 18.2432 29.076 17.0912C30.1213 15.9392 31.412 15.0219 32.948 14.3392C34.484 13.6352 36.2867 13.2832 38.356 13.2832C40.404 13.2832 42.196 13.6352 43.732 14.3392C45.268 15.0219 46.548 15.9392 47.572 17.0912C48.6173 18.2432 49.396 19.5339 49.908 20.9632C50.42 22.3712 50.676 23.7899 50.676 25.2192V25.9232C50.676 27.2245 50.42 28.5792 49.908 29.9872C49.4173 31.3739 48.66 32.6752 47.636 33.8912C46.6333 35.0859 45.3533 36.0565 43.796 36.8032C42.26 37.5499 40.4467 37.9232 38.356 37.9232ZM38.356 33.6992C39.5507 33.6992 40.6173 33.4859 41.556 33.0592C42.516 32.6325 43.3267 32.0459 43.988 31.2992C44.6707 30.5312 45.1827 29.6672 45.524 28.7072C45.8867 27.7259 46.068 26.6912 46.068 25.6032C46.068 24.4299 45.8867 23.3525 45.524 22.3712C45.1827 21.3899 44.6707 20.5365 43.988 19.8112C43.3267 19.0859 42.516 18.5205 41.556 18.1152C40.596 17.7099 39.5293 17.5072 38.356 17.5072C37.1613 17.5072 36.084 17.7099 35.124 18.1152C34.164 18.5205 33.3427 19.0859 32.66 19.8112C31.9987 20.5365 31.4867 21.3899 31.124 22.3712C30.7827 23.3525 30.612 24.4299 30.612 25.6032C30.612 26.6912 30.7827 27.7259 31.124 28.7072C31.4867 29.6672 31.9987 30.5312 32.66 31.2992C33.3427 32.0459 34.164 32.6325 35.124 33.0592C36.084 33.4859 37.1613 33.6992 38.356 33.6992ZM61.0013 37.3152L55.0493 13.9552H59.7533L64.5853 34.2752L63.3373 33.5392H66.5373L65.1293 34.2752L68.9373 14.8512H72.8413L68.1053 37.3152H61.0013ZM74.9533 37.3152L69.8013 14.8512H73.8653L78.2493 34.2752L76.8733 33.5392H80.0093L78.7933 34.2752L83.0493 13.9552H87.4973L82.1853 37.3152H74.9533ZM93.63 37.3152V13.9552H98.078V37.3152H93.63ZM97.438 37.3152V33.4752H108.03V37.3152H97.438ZM97.438 27.3632V23.5232H107.198V27.3632H97.438ZM97.438 17.7952V13.9552H107.774V17.7952H97.438ZM115.193 37.3152V13.7952H119.737V37.3152H115.193ZM129.465 37.3152L122.297 27.1392H127.385L134.777 37.3152H129.465ZM118.393 29.5072V25.8272H124.345C125.177 25.8272 125.891 25.6565 126.489 25.3152C127.107 24.9739 127.587 24.4939 127.929 23.8752C128.27 23.2565 128.441 22.5525 128.441 21.7632C128.441 20.9525 128.27 20.2379 127.929 19.6192C127.587 19.0005 127.107 18.5205 126.489 18.1792C125.891 17.8379 125.177 17.6672 124.345 17.6672H118.393V13.7952H123.865C125.742 13.7952 127.363 14.0725 128.729 14.6272C130.115 15.1819 131.182 16.0245 131.929 17.1552C132.675 18.2859 133.049 19.7045 133.049 21.4112V21.9232C133.049 23.6512 132.665 25.0699 131.897 26.1792C131.15 27.2885 130.094 28.1205 128.729 28.6752C127.363 29.2299 125.742 29.5072 123.865 29.5072H118.393ZM140.724 37.3152V13.9552H145.172V37.3152H140.724ZM144.532 37.3152V33.4752H155.124V37.3152H144.532ZM144.532 27.3632V23.5232H154.292V27.3632H144.532ZM144.532 17.7952V13.9552H154.868V17.7952H144.532ZM166.19 37.4432V33.2192H171.022C172.238 33.2192 173.316 33.0379 174.254 32.6752C175.214 32.2912 176.025 31.7579 176.686 31.0752C177.348 30.3925 177.849 29.5925 178.19 28.6752C178.553 27.7365 178.734 26.7019 178.734 25.5712C178.734 24.3979 178.553 23.3525 178.19 22.4352C177.849 21.4965 177.348 20.6965 176.686 20.0352C176.025 19.3739 175.214 18.8725 174.254 18.5312C173.316 18.1899 172.238 18.0192 171.022 18.0192H166.19V13.7952H170.734C172.846 13.7952 174.692 14.1045 176.27 14.7232C177.849 15.3419 179.161 16.1952 180.206 17.2832C181.252 18.3499 182.03 19.5765 182.542 20.9632C183.076 22.3285 183.342 23.7472 183.342 25.2192V25.9232C183.342 27.3312 183.076 28.7179 182.542 30.0832C182.03 31.4485 181.252 32.6859 180.206 33.7952C179.161 34.9045 177.849 35.7899 176.27 36.4512C174.692 37.1125 172.846 37.4432 170.734 37.4432H166.19ZM162.286 37.4432V13.7952H166.83V37.4432H162.286ZM203.126 37.4752V33.8272H208.982C210.048 33.8272 210.859 33.5392 211.414 32.9632C211.968 32.3659 212.246 31.5552 212.246 30.5312C212.246 29.5072 211.968 28.7179 211.414 28.1632C210.859 27.5872 210.048 27.2992 208.982 27.2992H203.126V24.5152H208.662C210.219 24.5152 211.606 24.7072 212.822 25.0912C214.059 25.4539 215.019 26.0725 215.702 26.9472C216.406 27.8219 216.758 28.9952 216.758 30.4672V30.9152C216.758 32.3019 216.448 33.4859 215.83 34.4672C215.232 35.4272 214.326 36.1739 213.11 36.7072C211.915 37.2192 210.432 37.4752 208.662 37.4752H203.126ZM199.318 37.4752V13.7952H203.766V37.4752H199.318ZM203.126 26.5632V23.7792H208.118C209.206 23.7792 210.006 23.4912 210.518 22.9152C211.03 22.3392 211.286 21.5712 211.286 20.6112C211.286 19.6512 211.03 18.8832 210.518 18.3072C210.006 17.7312 209.206 17.4432 208.118 17.4432H203.126V13.7952H207.702C210.347 13.7952 212.352 14.3499 213.718 15.4592C215.104 16.5685 215.798 18.1579 215.798 20.2272V20.6752C215.798 22.1259 215.446 23.2885 214.742 24.1632C214.059 25.0165 213.11 25.6352 211.894 26.0192C210.678 26.3819 209.28 26.5632 207.702 26.5632H203.126ZM227.391 28.3872L220.351 13.9552H225.023L230.399 25.2512L229.375 24.9312H232.415L231.327 25.2512L236.223 13.9552H240.639L234.143 28.3872H227.391ZM228.543 37.3152V27.6832H232.991V37.3152H228.543Z" fill="#777AAF"/>
<path fill-rule="evenodd" clip-rule="evenodd" d="M379.799 29.5271V0.634748C379.799 0.245427 379.452 -0.0505882 379.068 0.00947245L373.656 0.861046C373.348 0.909309 373.121 1.17529 373.121 1.4874L373.139 30.7905C373.139 32.1762 373.139 40.7327 383.432 41.0319C383.789 41.0427 384.085 40.7552 384.085 40.3981V36.0244C384.085 35.7069 383.85 35.4334 383.536 35.398C379.798 34.968 379.798 30.2961 379.798 29.5293L379.799 29.5271Z" fill="#777AAF"/>
<path d="M469.051 11.2349H463.605C463.256 11.2349 462.972 11.5182 462.972 11.8676V40.4072C462.972 40.7566 463.256 41.0399 463.605 41.0399H469.051C469.401 41.0399 469.684 40.7566 469.684 40.4072V11.8676C469.684 11.5182 469.401 11.2349 469.051 11.2349Z" fill="#777AAF"/>
<path fill-rule="evenodd" clip-rule="evenodd" d="M463.605 7.65646H469.05C469.4 7.65646 469.683 7.37331 469.683 7.02367V0.634726C469.683 0.246477 469.336 -0.0506104 468.952 0.00945021L463.506 0.862098C463.199 0.910361 462.971 1.17527 462.971 1.48737V7.02367C462.971 7.37331 463.254 7.65646 463.604 7.65646H463.605Z" fill="#777AAF"/>
<path fill-rule="evenodd" clip-rule="evenodd" d="M454.194 29.5271V0.634748C454.194 0.245427 453.846 -0.0505882 453.462 0.00947245L448.05 0.861046C447.743 0.909309 447.515 1.17529 447.515 1.4874L447.533 30.7905C447.533 32.1762 447.533 40.7327 457.826 41.0319C458.184 41.0427 458.48 40.7552 458.48 40.3981V36.0244C458.48 35.7069 458.245 35.4334 457.93 35.398C454.193 34.968 454.193 30.2961 454.193 29.5293L454.194 29.5271Z" fill="#777AAF"/>
<path fill-rule="evenodd" clip-rule="evenodd" d="M440.028 15.309C438.833 13.9952 437.365 12.987 435.654 12.2727C433.947 11.5724 432.087 11.2163 430.07 11.2163C428.056 11.2163 426.193 11.5563 424.501 12.2727C422.829 12.987 421.36 13.9941 420.13 15.309C418.9 16.6207 417.944 18.1909 417.26 20.0313C416.576 21.8728 416.269 24.0393 416.269 26.2905C416.269 28.5417 416.611 30.2448 417.293 32.1045C417.977 33.9621 418.917 35.5484 420.13 36.8622C421.341 38.1739 422.793 39.181 424.484 39.9146C426.176 40.6471 428.787 41.0225 430.104 41.0386C431.418 41.0386 434.049 40.6289 435.756 39.9146C437.464 39.1981 438.916 38.1739 440.13 36.8622C441.341 35.5484 442.28 33.9621 442.945 32.1045C443.612 30.2448 443.936 28.5417 443.936 26.2905C443.936 24.0393 443.578 21.8728 442.861 20.0313C442.176 18.1898 441.237 16.6207 440.026 15.309H440.028ZM435.263 32.8714C434.033 34.5606 432.307 35.4132 430.105 35.4132C427.901 35.4132 426.177 34.5767 424.946 32.8714C423.716 31.1822 423.101 29.2238 423.101 26.3076C423.101 23.4236 423.7 21.0373 424.93 19.3502C426.158 17.661 427.884 16.8277 430.086 16.8277C432.29 16.8277 434.015 17.6621 435.244 19.3502C436.474 21.0201 437.106 23.4236 437.106 26.3076C437.106 29.2238 436.492 31.1661 435.262 32.8714H435.263Z" fill="#777AAF"/>
<path fill-rule="evenodd" clip-rule="evenodd" d="M360.927 11.2349H355.637C350.45 11.2349 345.887 13.9676 343.222 18.1097C341.665 20.5314 340.757 23.4325 340.757 26.5535C340.757 31.368 342.916 35.6613 346.29 38.4691C346.604 38.748 346.939 39.0032 347.288 39.2349C348.668 40.1455 350.303 40.6796 352.063 40.6796C352.195 40.6796 352.327 40.6764 352.458 40.6699C352.496 40.6678 352.534 40.6646 352.573 40.6624C352.666 40.6571 352.76 40.6506 352.854 40.641C352.89 40.6377 352.926 40.6324 352.963 40.6281C353.061 40.6174 353.158 40.6056 353.256 40.5916C353.278 40.5884 353.301 40.5841 353.323 40.5809C356.851 40.0371 359.926 37.2754 360.927 33.8445V40.0468C360.927 40.3964 361.211 40.6796 361.56 40.6796H366.968C367.317 40.6796 367.601 40.3964 367.601 40.0468V11.8676C367.601 11.518 367.317 11.2349 366.968 11.2349H360.927V11.2349ZM360.927 33.4273C359.619 34.5169 357.928 34.9266 356.118 35.0489C356.101 35.05 356.083 35.0521 356.066 35.0532C355.946 35.0607 355.825 35.0639 355.705 35.0639C351.175 35.0639 347.434 31.2147 347.434 26.5514C347.434 25.4521 347.644 24.4053 348.015 23.4433C349.219 20.3201 352.174 18.1086 355.637 18.1086H360.927V33.4273V33.4273Z" fill="#777AAF"/>
<path fill-rule="evenodd" clip-rule="evenodd" d="M493.87 11.2349H488.579C483.393 11.2349 478.829 13.9676 476.165 18.1097C474.608 20.5314 473.699 23.4325 473.699 26.5535C473.699 31.368 475.858 35.6613 479.233 38.4691C479.547 38.748 479.881 39.0032 480.231 39.2349C481.61 40.1455 483.246 40.6796 485.006 40.6796C485.138 40.6796 485.27 40.6764 485.401 40.6699C485.439 40.6678 485.477 40.6646 485.515 40.6624C485.609 40.6571 485.703 40.6506 485.796 40.641C485.833 40.6377 485.869 40.6324 485.906 40.6281C486.003 40.6174 486.101 40.6056 486.198 40.5916C486.221 40.5884 486.244 40.5841 486.266 40.5809C489.794 40.0371 492.868 37.2754 493.87 33.8445V40.0468C493.87 40.3964 494.153 40.6796 494.503 40.6796H499.911C500.26 40.6796 500.543 40.3964 500.543 40.0468V11.8676C500.543 11.518 500.26 11.2349 499.911 11.2349H493.87V11.2349ZM493.87 33.4273C492.562 34.5169 490.87 34.9266 489.061 35.0489C489.044 35.05 489.026 35.0521 489.008 35.0532C488.888 35.0607 488.768 35.0639 488.648 35.0639C484.118 35.0639 480.377 31.2147 480.377 26.5514C480.377 25.4521 480.587 24.4053 480.958 23.4433C482.162 20.3201 485.116 18.1086 488.579 18.1086H493.87V33.4273V33.4273Z" fill="#777AAF"/>
<path fill-rule="evenodd" clip-rule="evenodd" d="M405.933 11.2349H400.642C395.456 11.2349 390.892 13.9676 388.228 18.1097C386.964 20.0766 386.126 22.3611 385.857 24.8225C385.795 25.3909 385.762 25.9679 385.762 26.5535C385.762 27.1391 385.796 27.7494 385.862 28.3328C386.321 32.418 388.344 36.0131 391.295 38.4702C391.61 38.749 391.944 39.0043 392.294 39.236C393.673 40.1465 395.309 40.6807 397.069 40.6807C398.998 40.6807 400.781 40.0446 402.234 38.9678C403.981 37.7259 405.331 35.9069 405.932 33.8466V39.237H405.92V40.4254C405.92 42.7678 405.308 44.5299 404.06 45.7193C402.815 46.9076 400.731 47.5029 397.813 47.5029C396.62 47.5029 394.725 47.4396 392.815 47.2444C392.512 47.2133 392.23 47.4053 392.143 47.697L390.772 52.3206C390.663 52.6917 390.908 53.0735 391.29 53.1282C393.598 53.4585 395.85 53.6301 397.151 53.6301C402.397 53.6301 406.285 52.4772 408.83 50.1756C411.134 48.0938 412.385 44.9321 412.605 40.6817V11.8698C412.605 11.5202 412.322 11.237 411.972 11.237H405.932L405.933 11.2349ZM405.933 18.1097C405.933 18.1097 406.003 33.0315 405.933 33.4852C404.637 34.533 403.025 34.9427 401.269 35.0618C401.252 35.0628 401.233 35.065 401.216 35.066C401.096 35.0736 400.976 35.0768 400.856 35.0768C400.714 35.0768 400.574 35.0736 400.433 35.066C396.099 34.8397 392.441 31.0699 392.441 26.5525C392.441 25.4531 392.651 24.4064 393.022 23.4443C394.226 20.3212 397.18 18.1097 400.643 18.1097H405.934H405.933Z" fill="#777AAF"/>
<path d="M291.794 0.00214712C277.151 0.00214712 265.214 11.8083 265.003 26.402C264.788 41.223 276.813 53.5043 291.636 53.5902C296.214 53.617 300.623 52.4973 304.539 50.3694C304.921 50.1624 304.98 49.6369 304.655 49.3494L302.147 47.1272C301.638 46.6757 300.913 46.548 300.285 46.814C297.552 47.9766 294.583 48.5708 291.522 48.5333C279.544 48.3863 269.867 38.4205 270.058 26.4438C270.246 14.6183 279.925 5.05688 291.794 5.05688H313.533V43.6962L301.199 32.7373C300.8 32.3823 300.189 32.452 299.867 32.8778C297.887 35.499 294.662 37.1293 291.08 36.8826C286.111 36.5394 282.085 32.5389 281.713 27.5721C281.267 21.6476 285.963 16.684 291.794 16.684C297.069 16.684 301.412 20.7434 301.866 25.9022C301.907 26.3612 302.114 26.7892 302.458 27.0948L305.67 29.9423C306.035 30.2652 306.613 30.0678 306.703 29.5884C306.935 28.3497 307.016 27.0594 306.925 25.736C306.408 18.1919 300.297 12.1226 292.75 11.6582C284.097 11.1251 276.863 17.8938 276.633 26.3784C276.409 34.6475 283.184 41.7754 291.454 41.9577C294.907 42.0338 298.107 40.9485 300.693 39.0673L316.808 53.3531C317.499 53.9655 318.59 53.4754 318.59 52.552V1.01674C318.59 0.454743 318.135 0 317.573 0H291.794V0.00214712Z" fill="#777AAF"/>
<path d="M528.298 37.3152V13.7952H532.842V37.3152H528.298ZM542.57 37.3152L535.402 27.1392H540.49L547.882 37.3152H542.57ZM531.498 29.5072V25.8272H537.45C538.282 25.8272 538.997 25.6565 539.594 25.3152C540.213 24.9739 540.693 24.4939 541.034 23.8752C541.376 23.2565 541.546 22.5525 541.546 21.7632C541.546 20.9525 541.376 20.2379 541.034 19.6192C540.693 19.0005 540.213 18.5205 539.594 18.1792C538.997 17.8379 538.282 17.6672 537.45 17.6672H531.498V13.7952H536.97C538.848 13.7952 540.469 14.0725 541.834 14.6272C543.221 15.1819 544.288 16.0245 545.034 17.1552C545.781 18.2859 546.154 19.7045 546.154 21.4112V21.9232C546.154 23.6512 545.77 25.0699 545.002 26.1792C544.256 27.2885 543.2 28.1205 541.834 28.6752C540.469 29.2299 538.848 29.5072 536.97 29.5072H531.498ZM553.83 37.3152V13.9552H558.278V37.3152H553.83ZM557.638 37.3152V33.4752H568.23V37.3152H557.638ZM557.638 27.3632V23.5232H567.398V27.3632H557.638ZM557.638 17.7952V13.9552H567.974V17.7952H557.638ZM585.701 37.9232C583.589 37.9232 581.776 37.5499 580.261 36.8032C578.747 36.0565 577.509 35.0859 576.549 33.8912C575.611 32.6965 574.917 31.3952 574.469 29.9872C574.021 28.5792 573.797 27.2245 573.797 25.9232V25.2192C573.797 23.7685 574.021 22.3392 574.469 20.9312C574.939 19.5232 575.653 18.2432 576.613 17.0912C577.573 15.9392 578.789 15.0219 580.261 14.3392C581.755 13.6352 583.515 13.2832 585.541 13.2832C587.653 13.2832 589.488 13.6672 591.045 14.4352C592.624 15.1819 593.883 16.2485 594.821 17.6352C595.76 19.0005 596.325 20.6005 596.517 22.4352H591.941C591.771 21.3685 591.387 20.4725 590.789 19.7472C590.213 19.0005 589.477 18.4459 588.581 18.0832C587.685 17.6992 586.672 17.5072 585.541 17.5072C584.389 17.5072 583.365 17.7099 582.469 18.1152C581.573 18.4992 580.827 19.0539 580.229 19.7792C579.632 20.5045 579.173 21.3579 578.853 22.3392C578.555 23.3205 578.405 24.4085 578.405 25.6032C578.405 26.7552 578.555 27.8219 578.853 28.8032C579.173 29.7845 579.643 30.6485 580.261 31.3952C580.88 32.1205 581.637 32.6859 582.533 33.0912C583.451 33.4965 584.507 33.6992 585.701 33.6992C587.451 33.6992 588.923 33.2725 590.117 32.4192C591.333 31.5445 592.069 30.3285 592.325 28.7712H596.901C596.688 30.4352 596.123 31.9605 595.205 33.3472C594.288 34.7339 593.029 35.8432 591.429 36.6752C589.829 37.5072 587.92 37.9232 585.701 37.9232ZM614.212 37.9232C612.1 37.9232 610.265 37.5499 608.708 36.8032C607.172 36.0565 605.892 35.0859 604.868 33.8912C603.865 32.6752 603.108 31.3739 602.596 29.9872C602.105 28.5792 601.86 27.2245 601.86 25.9232V25.2192C601.86 23.7899 602.116 22.3712 602.628 20.9632C603.14 19.5339 603.908 18.2432 604.932 17.0912C605.977 15.9392 607.268 15.0219 608.804 14.3392C610.34 13.6352 612.143 13.2832 614.212 13.2832C616.26 13.2832 618.052 13.6352 619.588 14.3392C621.124 15.0219 622.404 15.9392 623.428 17.0912C624.473 18.2432 625.252 19.5339 625.764 20.9632C626.276 22.3712 626.532 23.7899 626.532 25.2192V25.9232C626.532 27.2245 626.276 28.5792 625.764 29.9872C625.273 31.3739 624.516 32.6752 623.492 33.8912C622.489 35.0859 621.209 36.0565 619.652 36.8032C618.116 37.5499 616.303 37.9232 614.212 37.9232ZM614.212 33.6992C615.407 33.6992 616.473 33.4859 617.412 33.0592C618.372 32.6325 619.183 32.0459 619.844 31.2992C620.527 30.5312 621.039 29.6672 621.38 28.7072C621.743 27.7259 621.924 26.6912 621.924 25.6032C621.924 24.4299 621.743 23.3525 621.38 22.3712C621.039 21.3899 620.527 20.5365 619.844 19.8112C619.183 19.0859 618.372 18.5205 617.412 18.1152C616.452 17.7099 615.385 17.5072 614.212 17.5072C613.017 17.5072 611.94 17.7099 610.98 18.1152C610.02 18.5205 609.199 19.0859 608.516 19.8112C607.855 20.5365 607.343 21.3899 606.98 22.3712C606.639 23.3525 606.468 24.4299 606.468 25.6032C606.468 26.6912 606.639 27.7259 606.98 28.7072C607.343 29.6672 607.855 30.5312 608.516 31.2992C609.199 32.0459 610.02 32.6325 610.98 33.0592C611.94 33.4859 613.017 33.6992 614.212 33.6992ZM633.423 37.3152V13.9552H639.631L645.487 27.9072H646.063L651.887 13.9552H658.191V37.3152H653.679V17.3792L654.255 17.4432L647.951 32.5472H643.311L636.975 17.4432L637.583 17.3792V37.3152H633.423ZM666.455 37.3152V13.9552H672.663L678.519 27.9072H679.095L684.919 13.9552H691.223V37.3152H686.711V17.3792L687.287 17.4432L680.983 32.5472H676.343L670.007 17.4432L670.615 17.3792V37.3152H666.455ZM699.486 37.3152V13.9552H703.934V37.3152H699.486ZM703.294 37.3152V33.4752H713.886V37.3152H703.294ZM703.294 27.3632V23.5232H713.054V27.3632H703.294ZM703.294 17.7952V13.9552H713.63V17.7952H703.294ZM721.048 37.3152V13.9552H728.504L738.328 33.5392H739.384L738.744 34.1152V13.9552H743.032V37.3152H735.544L725.72 17.7312H724.632L725.272 17.1552V37.3152H721.048ZM755.202 37.4432V33.2192H760.034C761.25 33.2192 762.328 33.0379 763.266 32.6752C764.226 32.2912 765.037 31.7579 765.698 31.0752C766.36 30.3925 766.861 29.5925 767.202 28.6752C767.565 27.7365 767.746 26.7019 767.746 25.5712C767.746 24.3979 767.565 23.3525 767.202 22.4352C766.861 21.4965 766.36 20.6965 765.698 20.0352C765.037 19.3739 764.226 18.8725 763.266 18.5312C762.328 18.1899 761.25 18.0192 760.034 18.0192H755.202V13.7952H759.746C761.858 13.7952 763.704 14.1045 765.282 14.7232C766.861 15.3419 768.173 16.1952 769.218 17.2832C770.264 18.3499 771.042 19.5765 771.554 20.9632C772.088 22.3285 772.354 23.7472 772.354 25.2192V25.9232C772.354 27.3312 772.088 28.7179 771.554 30.0832C771.042 31.4485 770.264 32.6859 769.218 33.7952C768.173 34.9045 766.861 35.7899 765.282 36.4512C763.704 37.1125 761.858 37.4432 759.746 37.4432H755.202ZM751.298 37.4432V13.7952H755.842V37.4432H751.298Z" fill="#777AAF"/>
</svg>
