<svg xmlns="http://www.w3.org/2000/svg" width="141" height="24" fill="none"><path fill="#141D61" fill-opacity=".3" d="M5.718 10.496h5.091v7.286c0 3.68-1.88 5.796-5.404 5.796C1.88 23.578 0 21.463 0 17.782V5.796C0 2.115 1.88 0 5.405 0c3.525 0 5.404 2.115 5.404 5.796v2.272H7.364V5.562c0-1.645-.705-2.271-1.88-2.271-1.175 0-1.88.626-1.88 2.27v12.455c0 1.645.705 2.272 1.88 2.272 1.175 0 1.88-.627 1.88-2.272v-4.23H5.718v-3.29ZM16.058 15.745 11.514.314h3.76l2.742 10.496L20.757.314h3.525L19.66 15.745v7.676h-3.604v-7.676ZM33.368 16.685 35.875.314h5.013v23.029H37.44V6.815l-2.506 16.527h-3.447L28.825 7.05v16.293h-3.133V.313h5.013l2.663 16.372ZM48.408 0c3.525 0 5.327 2.115 5.327 5.797v.705h-3.447v-.94c0-1.645-.627-2.271-1.802-2.271s-1.801.626-1.801 2.27c0 4.779 7.05 5.64 7.05 12.22 0 3.681-1.88 5.797-5.405 5.797-3.525 0-5.405-2.115-5.405-5.797v-1.41h3.446v1.645c0 1.645.706 2.272 1.88 2.272 1.176 0 1.88-.627 1.88-2.272 0-4.778-7.05-5.64-7.05-12.22 0-3.68 1.802-5.796 5.327-5.796ZM59.452 23.343H55.85V.313h3.602v9.87h4.152V.313h3.682v23.03h-3.682v-9.87h-4.152v9.87ZM81.62 23.343h-3.682l-.626-4.152h-4.465l-.626 4.152h-3.29L72.612.313h5.326l3.682 23.03Zm-8.225-7.285h3.525L75.197 4.387l-1.802 11.671ZM90.863 23.343c-.235-.627-.313-.94-.313-2.82V16.92c0-2.115-.706-2.898-2.35-2.898h-1.254v9.4h-3.602V.314h5.482c3.76 0 5.405 1.724 5.405 5.327v1.801c0 2.35-.783 3.917-2.35 4.7 1.801.784 2.428 2.508 2.428 4.936v3.524c0 1.097 0 1.959.392 2.82h-3.839v-.08Zm-3.917-19.74v7.05h1.41c1.332 0 2.194-.627 2.194-2.428V5.953c0-1.645-.55-2.35-1.88-2.35h-1.724ZM101.281 14.178l-1.097 2.115v7.05h-3.602V.313h3.602V10.34L104.963.313h3.603l-5.014 10.261 5.014 12.769h-3.76l-3.525-9.165ZM110.916.392h30.078s-13.786 15.353-20.757 22.95c0 0 .548-1.173.862-1.644-.314 0-.627-1.253-1.018-1.88-.392.235-.784.392-1.176.548-.391.235-.626.157-.861-.312-.157-.392-.313-.862-.549-1.253-.391.156-1.332.705-1.488.705l-4.857-2.037c.079 0 2.429-.078 3.446 0l1.567 1.332c.392-.39.705-1.018 1.019-1.332h.861c.313.314.627.862.94 1.253l1.175-1.174h.627c.313.313.705.783 1.018 1.096 0 0 .079 0 .156.079 0 0 .627-.705.862-1.018h.705s8.851-13.317 8.93-13.473c-7.128-1.333-21.54-3.84-21.54-3.84Z"/><path fill="#141D61" fill-opacity=".3" d="m119.689 8.303-4.936-2.741c2.898.705 5.876 1.41 8.773 2.037l-3.837.704Z"/></svg>