<svg xmlns="http://www.w3.org/2000/svg" width="110" height="24" fill="none"><path fill="#0C193A" fill-opacity=".3" d="M31.336 9.15H20.581v14.62h10.755v-2.99H23.8v-2.778h7.19v-2.949h-7.19V12.14h7.537V9.15ZM48.457 11.418c0-1.49-.533-2.677-1.587-3.53-1.026-.846-2.367-1.275-3.985-1.275h-6.018v14.62h3.218v-4.639h2.309l2.826 4.639h3.656l-3.206-5.26a4.953 4.953 0 0 0 2.053-1.868c.494-.807.749-1.74.734-2.687Zm-8.373-1.816h2.273c1.985 0 2.91.63 2.91 1.98 0 1.351-.949 2.042-2.91 2.042h-2.273V9.602ZM64.165 18.978c-.968 1.318-2.254 1.988-3.827 1.988a4.227 4.227 0 0 1-3.076-1.216c-.826-.81-1.245-1.928-1.245-3.322 0-1.394.419-2.469 1.245-3.26a4.06 4.06 0 0 1 2.912-1.215 4.46 4.46 0 0 1 2.11.492 4.493 4.493 0 0 1 1.634 1.431l.057.082 2.17-2.228-.047-.057C64.634 9.847 62.69 8.92 60.319 8.92c-2.164 0-3.989.694-5.425 2.083-1.436 1.389-2.176 3.219-2.176 5.49 0 2.242.733 4.073 2.178 5.445C56.34 23.309 58.217 24 60.414 24c2.431 0 4.418-.925 5.903-2.751l.045-.058-2.146-2.29-.051.077ZM77.984 6.613h-3.02L69.321 21.12l-.043.113h3.332l1.035-2.62h5.62l1.057 2.62h3.33L77.996 6.665l-.012-.052Zm.238 9.112h-3.495l1.747-4.632 1.748 4.632ZM99.44 13.954c0-1.49-.535-2.677-1.587-3.529-1.051-.852-2.367-1.276-3.985-1.276h-6.023v14.622h3.218v-4.64h2.309l2.826 4.64h3.656l-3.206-5.267a4.952 4.952 0 0 0 2.055-1.865c.495-.806.75-1.737.737-2.685Zm-8.377-1.814h2.272c1.985 0 2.908.629 2.908 1.98 0 1.35-.95 2.04-2.908 2.04h-2.272v-4.02ZM107.862 7.88h-3.197v13.353h3.197V7.88ZM105.83 0l-1.478 3.527 3.503 1.488 1.478-3.527L105.83 0ZM7.482 14.527l4.115-7.914h3.276v14.62H11.64v-8.348h-.038l-3.116 5.643H6.394l-3.118-5.634h-.04v8.332H0V6.613h3.276l4.14 7.914h.066Z"/></svg>